# xmcd
#
# Track frame offsets: 
#        150
#        18191
#        31406
#        41956
#        59342
#        72054
#        83309
#        96705
#        110993
#        120776
#        130335
#        143982
#        158101
#        170266
#        187193
#        198894
#        210021
#        223025
#        238304
#        248890
#        258383
#        270028
#        284227
#        297089
#        309439
#        322726
#
# Disc length: 4534 seconds
#
# Revision: 0
# Processed by: cddbd v1.5.2PL0 Copyright (c) Steve Scherf et al.
# Submitted via: ExactAudioCopy v0.95b4
#
DISCID=7a11b41a
DTITLE=Various Artist - VIP MEGA EURO STAR Hybrid
DYEAR=2008
DGENRE=Euro/Dance
TTITLE0=Shin Yoshimune Soundtrack - Ima kono toki dake
TTITLE1=ZIPPERS - GO SPEED RACER GO (Hyper Mix)
TTITLE2=MIKE SNAP - SUPER CAR (HaremBeat SUZUKA Mix)
TTITLE3=mioco - Sousei no Aquarion (Plum Mix)
TTITLE4=mioco - Sorairo no deizu (Plum mix)
TTITLE5=GIPSY BABY - WHAT A WONDERFUL DAY (The Factory Energy Mix)
TTITLE6=DAVID DIMA - FIGHT AND GO
TTITLE7=ROBBIE BOY - MR. HEARTBREAK
TTITLE8=ROMI - OPEN YOUR HEART
TTITLE9=ALOUD - TOGETHER AND FOREVER
TTITLE10=move - GAMBLE RUMBLE
TTITLE11=mioco - a (R TECH EDIT)
TTITLE12=POWER DREAMS - 7th MOON
TTITLE13=Aoharu - BLUE WING (NRG Factory Mix)
TTITLE14=MIWA - ETERNAL STORY
TTITLE15=NICOLE LEE - DON'T YOU FORGET MY WORLD
TTITLE16=ERI - MOONLIGHT
TTITLE17=erica - WHITE PETAL
TTITLE18=Rian - WATCH
TTITLE19=RADIORAMA - IT'S MY LIFE (The Eurobeat Mix)
TTITLE20=DEBBIE KEY - YOU WILL SEE
TTITLE21=BETTY LOU - ANY MORE
TTITLE22=SAETTA KID - BIG BOY
TTITLE23=BIG WAREZ - STARLIGHT WOMAN
TTITLE24=MIKE SNAP - JUMPIN THE FIRE
TTITLE25=F.C.F. - HEY MAMMA HEY (Mamma Mix Remix)
EXTD=
EXTT0=
EXTT1=
EXTT2=
EXTT3=
EXTT4=
EXTT5=
EXTT6=
EXTT7=
EXTT8=
EXTT9=
EXTT10=
EXTT11=
EXTT12=
EXTT13=
EXTT14=
EXTT15=
EXTT16=
EXTT17=
EXTT18=
EXTT19=
EXTT20=
EXTT21=
EXTT22=
EXTT23=
EXTT24=
EXTT25=
PLAYORDER=
